<?xml version="1.0" encoding="UTF-8" standalone="no"?>
        <svg 
    viewBox="4.6499999999999995 -85.64999999999998 447.29999999999995 56.85"
    width="442.65"
    height="142.5"
   xmlns="http://www.w3.org/2000/svg"
   xmlns:svg="http://www.w3.org/2000/svg">
   <path d="M103.95-91.05L64.35-91.05L64.35-105.75L103.95-105.75ZM121.80-120.75L47.40-120.75L47.40-75.90L121.80-75.90ZM73.80-6.90C92.40-0.90 119.25 8.55 132.30 14.40L140.40-0.75C126.60-6.15 99.15-15 81.45-20.10ZM111.15-51.90L111.15-38.70L81-38.70C81.60-42.90 82.05-47.10 82.50-51.90ZM129.30-38.70L129.30-67.95L37.35-67.95L37.35-114.15L19.35-114.15L19.35-51.90L64.65-51.90C64.35-47.10 63.90-42.75 63.15-38.70L7.80-38.70L7.80-22.50L57.60-22.50C50.40-11.55 35.85-5.10 4.65-1.35C7.80 2.25 11.55 9.15 12.75 13.50C53.40 7.65 69.90-3.60 76.95-22.50L142.35-22.50L142.35-38.70ZM218.55-43.65C217.05-37.95 214.95-33 212.40-28.50C209.10-30.30 205.65-31.95 202.50-33.45C203.70-36.60 204.90-40.05 206.10-43.65ZM238.65-13.05C235.05-15.60 230.40-18.45 225.30-21.30C229.05-27.90 231.60-35.25 233.70-43.65L239.85-43.65L239.85-55.50L235.95-55.50C236.25-57.45 236.55-59.40 236.85-61.50L222.15-63.15C221.85-60.60 221.40-58.05 221.10-55.50L209.85-55.50C211.20-60 212.40-64.35 213.60-68.70L238.20-68.70L238.20-82.35L187.20-82.35L187.20-68.70L199.05-68.70C198-64.35 196.80-60 195.30-55.50L185.70-55.50L185.70-43.65L191.40-43.65C189.15-37.50 186.90-31.95 184.80-27.30C190.80-24.45 197.70-21.15 204-17.40C197.70-10.95 189.15-6.15 178.05-2.55C181.05 0.15 184.50 5.40 186.15 9C199.35 4.35 209.25-1.80 216.60-9.75C220.50-7.20 223.95-4.95 226.80-2.85ZM273.45-79.65C271.20-66.30 267.90-54 263.40-43.20C261.30-56.85 259.80-73.05 259.05-90.45L293.25-90.45L293.25-106.65L283.05-106.65L291-115.05C286.50-119.10 277.95-124.65 271.20-128.10L261.45-117.90C266.70-114.75 273.30-110.40 277.80-106.65L258.60-106.65C258.45-113.40 258.45-120 258.60-126.90L241.05-126.90C241.05-120.15 241.20-113.40 241.35-106.65L166.05-106.65L166.05-63.15C166.05-43.50 165-16.80 153.60 1.95C157.35 3.75 164.25 9.45 166.95 12.45C180.30-7.95 182.55-40.95 182.55-63.15L182.55-90.45L241.95-90.45C243.15-63.90 245.70-39 250.50-20.40C244.05-11.70 236.10-4.35 226.65 1.35C230.25 4.20 236.55 10.50 238.95 13.80C245.70 9.15 251.70 3.90 257.10-2.25C261.90 7.35 267.90 13.20 275.85 13.20C288.60 13.20 293.70 6.45 296.10-19.65C291.75-21.60 286.05-25.35 282.30-29.25C281.85-11.55 280.50-4.05 277.80-4.05C274.50-4.05 271.35-9.30 268.65-18C278.70-34.35 285.45-54.15 289.95-77.25ZM403.35-41.85C403.80-46.20 404.10-50.85 404.40-55.50L388.20-55.50C387.90-50.85 387.60-46.20 387.15-41.85L373.50-41.85C381.60-48 387.90-55.05 393-63.75L407.85-63.75C413.10-55.50 420.45-47.70 428.25-41.85ZM327.60-56.10C327.75-59.70 327.75-63.15 327.75-66.15L327.75-71.40L339.15-71.40L339.15-56.10ZM339.15-104.10L339.15-87L327.75-87L327.75-104.10ZM444-63.75L444-78.15L399.90-78.15C400.95-81 401.85-83.85 402.75-86.85L438.60-86.85L438.60-101.40L426.45-101.40C430.95-106.80 435.30-113.25 439.20-120.15L425.25-124.65C421.80-119.10 416.40-111.60 411-106.80C412.95-105.45 415.50-103.50 417.90-101.40L406.20-101.40C407.55-108.90 408.60-117.15 409.35-126L393.15-126.90C392.55-117.60 391.65-109.05 390.15-101.40L377.55-101.40L387.75-108.15C384.90-113.10 379.05-120 373.20-124.95L361.05-117.75C365.85-113.10 371.25-106.50 374.10-101.40L362.40-101.40L362.40-86.85L386.25-86.85C385.20-83.70 384-81 382.80-78.15L357.75-78.15L357.75-63.75L373.65-63.75C368.55-57.90 362.40-52.95 354.90-49.05L354.90-120.15L312.60-120.15L312.60-66.30C312.60-44.55 312-14.70 304.35 5.85C308.10 7.35 315.15 11.10 318.15 13.50C323.85-1.50 326.25-21.90 327.15-40.80L339.15-40.80L339.15-6C339.15-4.20 338.70-3.60 337.05-3.60C335.55-3.60 331.20-3.60 326.85-3.75C328.95 0.60 330.75 8.25 331.05 12.60C339.60 12.60 345.30 12.30 349.50 9.45C353.85 6.60 354.90 1.95 354.90-5.55L354.90-42.30C357.75-39.45 360.45-36.15 361.65-34.35C364.05-35.55 366.45-36.90 368.70-38.40L368.70-27.30L384.15-27.30C380.55-15.60 372.90-6.75 357-0.60C360.60 2.55 365.10 8.85 366.90 12.90C387.90 4.20 396.90-9.45 400.95-27.30L415.35-27.30C414.45-12.15 413.25-5.70 411.60-3.60C410.40-2.40 409.05-2.10 407.10-2.10C404.70-2.10 399.90-2.25 394.80-2.70C396.90 1.35 398.70 7.35 399 12C405.60 12.30 411.90 12.15 415.50 11.70C419.70 11.10 422.85 9.90 425.70 6.45C429.30 2.25 430.95-9 432.30-35.55C432.45-36.45 432.45-37.80 432.60-39C433.95-38.10 435.30-37.35 436.80-36.60C439.20-40.35 444-46.05 447.30-48.90C439.65-52.20 431.70-57.60 425.70-63.75Z"/>
    </svg>
        