<svg width="296" height="296" version="1.1" xmlns="http://www.w3.org/2000/svg" xmlns:xlink="http://www.w3.org/1999/xlink"><path d="M218.15 60.68L218.15 62.46L182.63 84.95Q181.15 85.54 180.56 85.84L180.56 85.84L179.97 84.95L179.97 82.58L192.40 64.82Q194.47 60.68 195.36 56.83L195.36 56.83L196.25 49.14L196.25 48.84Q197.43 44.10 206.90 48.54L206.90 48.54Q216.67 53.28 218.15 60.68L218.15 60.68ZM267.29 187.37L269.06 189.74L267.29 191.22L237.69 194.18L224.96 193.58Q217.86 192.70 214.01 189.74L214.01 189.74Q204.54 182.93 173.46 143.56L173.46 143.56Q161.62 145.04 145.34 149.18L145.34 149.18Q144.74 150.07 135.27 167.24L135.27 167.24Q134.09 169.61 132.90 171.38L132.90 171.38Q116.92 196.84 101.82 204.83L101.82 204.83L99.75 204.54L100.05 201.28Q120.47 171.68 129.65 153.33L129.65 153.33Q108.63 157.47 103.01 154.81L103.01 154.81Q99.46 153.33 99.75 149.48L99.75 149.48Q111.30 146.52 133.79 142.97L133.79 142.97L141.78 121.06L126.39 118.99L121.66 116.92L119.29 114.55L121.06 112.78L144.45 108.34Q149.78 89.98 151.85 59.20L151.85 59.20Q152.14 53.87 152.14 50.62L152.14 50.62Q151.55 41.14 147.41 34.04L147.41 34.04Q147.41 29.90 150.66 29.01L150.66 29.01Q159.54 29.90 171.09 40.55L171.09 40.55L169.02 50.62L159.84 103.60Q163.98 104.19 177.60 97.98L177.60 97.98Q194.18 90.28 202.17 95.61L202.17 95.61Q203.06 96.20 203.94 97.09L203.94 97.09Q204.83 97.68 204.83 100.94L204.83 100.94L202.17 103.01L157.18 116.03Q152.44 128.46 148.89 139.12L148.89 139.12Q174.94 134.68 192.10 130.24L192.10 130.24L211.05 124.91Q211.64 124.91 212.53 124.91L212.53 124.91Q220.82 123.73 228.81 127.28L228.81 127.28Q234.14 129.65 237.39 133.50L237.39 133.50Q237.39 136.16 234.43 137.34L234.43 137.34Q227.62 139.71 198.32 141.49L198.32 141.49Q187.37 142.08 181.74 142.97L181.74 142.97Q210.16 168.13 267.29 187.37L267.29 187.37ZM136.75 85.25L136.75 85.25Q135.27 91.76 132.90 92.94L132.90 92.94Q127.87 92.94 121.36 85.84L121.36 85.84Q120.47 84.95 119.88 84.36L119.88 84.36Q119.58 82.88 115.14 76.37L115.14 76.37Q112.48 72.82 112.48 68.97L112.48 68.97Q117.81 65.12 129.06 74.89L129.06 74.89Q135.86 81.10 136.75 85.25ZM208.68 200.39L208.68 200.39Q208.38 201.87 205.42 206.02L205.42 206.02Q204.54 207.20 203.94 208.38L203.94 208.38Q200.39 216.67 195.36 241.83L195.36 241.83Q190.62 266.99 179.38 278.54L179.38 278.54L172.27 284.75L171.68 285.34Q167.54 285.34 164.28 281.50L164.28 281.50L149.78 261.96Q149.48 261.37 148.89 261.07L148.89 261.07L148.89 259.30L164.28 261.96Q168.42 261.96 171.68 259.30L171.68 259.30Q180.26 252.49 183.22 225.26L183.22 225.26Q184.70 211.64 182.93 204.83L182.93 204.83Q178.49 203.06 161.32 206.90L161.32 206.90Q159.84 207.20 158.95 207.50L158.95 207.50Q148 235.62 127.28 256.63L127.28 256.63Q115.44 268.47 104.19 273.21L104.19 273.21Q100.64 274.10 98.27 273.50L98.27 273.50L98.27 272.32Q118.99 253.08 142.38 212.23L142.38 212.23Q140.30 212.23 127.58 215.49L127.58 215.49Q115.14 218.74 110.11 210.46L110.11 210.46L111.59 209.27Q129.06 207.79 145.34 203.94L145.34 203.94Q148.89 190.33 148.30 173.75L148.30 173.75Q148.30 170.79 148 168.13L148 168.13Q149.48 165.76 157.47 167.54L157.47 167.54Q167.24 172.27 169.31 174.94L169.31 174.94Q169.02 179.08 163.10 193.88L163.10 193.88Q161.91 197.14 161.32 199.50L161.32 199.50Q173.16 197.43 185.89 191.22L185.89 191.22Q197.14 191.22 208.68 200.39ZM98.86 74.00L98.86 74.00L94.13 93.24L93.83 96.20L94.13 200.39L95.31 230.29Q94.42 248.64 84.36 257.52L84.36 257.52Q81.70 259.89 79.03 259.00L79.03 259.00Q77.85 258.41 76.37 257.22L76.37 257.22L53.28 229.40L74.89 232.95L75.48 232.95Q81.10 226.44 80.51 92.94L80.51 92.94Q80.51 79.03 76.66 75.48L76.66 75.48L74.59 74.59Q66.60 75.48 51.50 80.51L51.50 80.51Q50.62 99.75 50.62 118.70L50.62 118.70Q55.94 117.81 66.90 117.81L66.90 117.81Q73.70 120.77 73.70 124.02L73.70 124.02Q69.86 127.28 50.62 128.17L50.62 128.17L47.06 160.14Q46.77 161.02 46.47 162.21L46.47 162.21Q60.68 160.14 64.23 160.73L64.23 160.73Q69.56 161.62 72.22 165.46L72.22 165.46Q72.22 169.02 69.56 169.02L69.56 169.02L45.58 170.79Q34.04 222.89 9.77 249.53L9.77 249.53Q6.81 253.38 3.26 253.38L3.26 253.38L3.26 250.12Q36.11 188.26 36.11 138.53L36.11 138.53L35.82 129.65L35.82 129.35L36.70 95.31Q35.82 79.92 29.01 70.45L29.01 70.45Q29.01 67.49 30.78 66.90L30.78 66.90Q39.96 66.90 48.54 72.22L48.54 72.22Q55.65 72.22 69.26 66.30L69.26 66.30Q81.40 61.27 89.39 65.71L89.39 65.71Q93.83 68.38 98.86 74.00Z" stroke="#000" fill="black" /></svg>