<svg width="296" height="296" version="1.1" xmlns="http://www.w3.org/2000/svg" xmlns:xlink="http://www.w3.org/1999/xlink"><path d="M193.58 32.63L193.58 32.63Q183.82 39.44 177.30 51.28L177.30 51.28L171.38 61.64Q175.82 64.90 175.82 67.86L175.82 67.86L174.64 69.34L121.36 75.55Q116.33 76.44 111.59 77.33L111.59 77.33Q111.59 80.88 110.70 82.36L110.70 82.36Q103.30 80.59 95.90 55.43L95.90 55.43Q88.50 31.45 85.54 27.01L85.54 27.01L86.43 22.27Q94.72 22.87 101.82 24.94L101.82 24.94Q117.51 23.46 144.74 17.24L144.74 17.24Q162.80 12.21 163.98 12.21L163.98 12.21L172.86 12.51L173.16 12.51L187.37 20.50Q196.54 26.71 193.58 32.63ZM156.29 59.27L165.17 34.71L165.17 29.08Q163.10 25.53 157.47 25.83L157.47 25.83L106.26 34.71Q108.34 50.69 112.18 67.86L112.18 67.86L156.29 59.27ZM254.26 229.18L255.45 231.84L254.26 233.32Q216.97 237.76 203.35 236.28L203.35 236.28L192.70 234.21Q188.85 233.03 185.89 230.95L185.89 230.95Q181.45 227.70 169.61 214.38L169.61 214.38Q169.02 213.79 168.72 213.49L168.72 213.49Q140.90 184.78 121.66 161.99L121.66 161.99Q113.37 192.47 87.32 212.01L87.32 212.01Q76.07 220.30 63.34 224.44L63.34 224.44Q34.63 233.62 17.76 233.62L17.76 233.62L16.87 231.84Q18.65 230.66 26.94 228.29L26.94 228.29Q66.60 216.15 84.66 196.62L84.66 196.62Q97.98 182.41 106.56 158.73L106.56 158.73Q84.06 160.80 65.42 165.24L65.42 165.24L48.54 169.68L46.77 169.68Q38.78 170.57 31.97 166.43L31.97 166.43Q27.82 163.76 25.46 159.91L25.46 159.91Q25.46 158.14 27.82 157.55L27.82 157.55L107.45 148.96L108.34 148.07Q109.82 123.21 106.86 114.92L106.86 114.92Q88.50 116.11 69.56 128.24L69.56 128.24Q62.16 127.06 57.42 118.77L57.42 118.77Q57.42 115.22 62.46 107.82L62.46 107.82Q64.23 105.45 64.82 103.38L64.82 103.38Q69.86 92.13 66.60 79.70L66.60 79.70Q64.82 72.89 60.98 67.86L60.98 67.86Q61.57 58.98 79.62 69.63L79.62 69.63Q82.29 71.11 83.77 72.00L83.77 72.00Q84.66 73.48 84.66 74.67Q84.66 75.85 83.18 79.40L83.18 79.40Q79.33 90.95 79.33 108.11L79.33 108.11Q81.40 109.59 82.88 109.59L82.88 109.59Q88.50 109.59 111.59 104.56L111.59 104.56Q115.44 103.67 118.10 103.38L118.10 103.38L158.06 97.46Q159.84 97.16 161.32 96.57L161.32 96.57Q162.21 96.57 171.38 92.43L171.38 92.43Q174.94 90.95 177.60 90.95L177.60 90.95Q184.11 90.95 198.02 101.90L198.02 101.90Q199.80 103.08 200.69 104.27L200.69 104.27Q200.69 107.23 194.77 112.26L194.77 112.26L192.10 114.92Q185.30 123.80 180.26 138.31L180.26 138.31Q183.82 138.31 203.94 134.46L203.94 134.46Q222.89 130.61 234.14 138.01L234.14 138.01Q241.24 142.75 242.13 143.63L242.13 143.63L243.90 146.59Q244.20 148.07 243.61 149.85L243.61 149.85L240.94 151.92Q161.32 151.92 140.90 153.99L140.90 153.99L126.69 156.07L126.39 156.36Q158.95 183.30 171.38 191.29L171.38 191.29Q175.53 193.95 179.38 196.32L179.38 196.32Q197.14 207.27 240.35 223.55L240.35 223.55Q248.94 227.11 254.26 229.18L254.26 229.18ZM170.79 111.37L170.79 111.37Q169.02 108.41 166.65 107.52L166.65 107.52Q161.02 105.45 125.21 111.07L125.21 111.07Q122.54 111.67 121.06 111.67L121.06 111.67Q131.13 117.59 131.72 123.21L131.72 123.21Q128.17 131.50 126.39 146.00L126.39 146.00Q132.90 144.23 159.25 141.56L159.25 141.56Q160.73 141.27 162.21 141.27L162.21 141.27Q162.80 138.31 168.13 123.80L168.13 123.80Q170.79 116.70 170.79 111.37Z" stroke="#000" fill="black" /></svg>