<svg width="296" height="296" version="1.1" xmlns="http://www.w3.org/2000/svg" xmlns:xlink="http://www.w3.org/1999/xlink"><path d="M211.94 73.83L211.94 73.83Q205.42 73.83 199.21 68.79L199.21 68.79L176.42 51.63Q175.53 50.74 175.53 45.71L175.53 45.71Q190.03 45.41 199.80 48.96L199.80 48.96Q214.90 54.59 214.90 67.91L214.90 67.91Q214.90 71.46 211.94 73.83ZM179.97 215.31L179.97 215.31L165.46 229.23Q158.06 235.15 150.96 235.74L150.96 235.74L150.96 233.07Q163.69 219.46 174.05 203.77L174.05 203.77Q155.10 160.26 143.56 109.05L143.56 109.05L96.50 116.45Q84.95 117.63 75.78 116.75L75.78 116.75Q74.89 120.30 70.45 155.52L70.45 155.52L66.60 175.95Q65.71 180.09 64.53 183.94L64.53 183.94Q67.49 183.94 94.42 181.57L94.42 181.57Q98.57 165.29 97.98 159.96L97.98 159.96Q97.68 156.41 96.20 153.75L96.20 153.75L84.66 151.08L81.99 149.01Q81.70 148.71 81.10 148.12L81.10 148.12Q85.84 145.16 101.53 143.09L101.53 143.09Q103.60 142.79 105.08 142.50L105.08 142.50L126.39 135.69Q129.06 135.39 131.42 135.39L131.42 135.39Q137.94 135.39 143.26 139.83L143.26 139.83Q141.78 145.46 113.07 151.38L113.07 151.38Q107.45 152.56 105.38 153.15L105.38 153.15Q113.66 157.89 113.66 162.63L113.66 162.63Q110.11 167.36 105.97 178.91L105.97 178.91Q110.41 178.61 129.06 175.65L129.06 175.65Q128.17 168.55 129.06 166.47L129.06 166.47Q137.64 166.47 147.11 175.65L147.11 175.65Q147.41 176.24 148.30 176.83L148.30 176.83Q148 178.91 126.10 223.01L126.10 223.01L124.91 225.08Q132.31 228.04 138.82 239.59L138.82 239.59Q146.52 253.50 139.12 256.16L139.12 256.16L134.09 256.75Q129.35 254.09 121.06 243.73L121.06 243.73Q117.81 239.29 115.44 236.92L115.44 236.92Q94.13 254.09 81.10 257.05L81.10 257.05Q73.11 259.12 65.71 257.35L65.71 257.35Q66.01 256.46 69.56 254.39L69.56 254.39Q91.46 244.32 107.74 229.23L107.74 229.23Q97.38 218.27 85.25 213.83L85.25 213.83Q82.88 211.17 90.28 194.89L90.28 194.89Q91.17 192.52 91.76 191.34L91.76 191.34Q87.32 191.34 76.66 196.67L76.66 196.67Q74.59 197.55 73.11 198.15L73.11 198.15Q71.63 197.55 64.53 192.52L64.53 192.52Q63.64 191.93 63.05 191.63L63.05 191.63Q48.84 227.15 40.85 239.88L40.85 239.88Q29.60 258.23 16.58 264.75L16.58 264.75L15.10 264.75L15.10 261.19Q55.65 207.03 58.61 125.03L58.61 125.03Q58.90 117.34 56.54 111.12L56.54 111.12Q55.06 106.98 52.39 103.43L52.39 103.43Q53.28 94.25 69.26 104.02L69.26 104.02Q71.93 105.79 73.41 106.98L73.41 106.98Q115.74 103.72 140.60 97.51L140.60 97.51Q136.46 66.43 134.68 59.32L134.68 59.32Q134.09 56.95 133.20 54.88L133.20 54.88Q132.31 51.92 121.06 38.90L121.06 38.90Q117.51 34.75 117.51 33.87L117.51 33.87Q117.51 27.06 129.94 28.83L129.94 28.83Q143.86 30.91 150.07 38.90L150.07 38.90Q151.26 40.08 151.85 41.27L151.85 41.27Q150.96 54.29 153.62 93.36L153.62 93.36Q158.36 93.07 174.64 87.74L174.64 87.74Q183.82 84.78 190.03 84.78L190.03 84.78Q197.43 84.78 203.65 88.63L203.65 88.63Q208.09 91.29 206.02 94.25L206.02 94.25Q202.46 98.69 156.88 106.09L156.88 106.09Q161.91 147.23 180.26 187.49L180.26 187.49L181.45 189.86Q192.10 162.92 193.88 152.86L193.88 152.86Q195.66 142.50 193.88 133.62L193.88 133.62Q193.88 131.25 195.66 130.07L195.66 130.07Q203.06 130.07 212.53 140.72L212.53 140.72L214.60 143.09L214.60 145.16Q202.17 179.50 188.26 204.07L188.26 204.07Q207.50 236.33 228.81 249.65L228.81 249.65Q235.91 249.65 238.58 243.73L238.58 243.73L250.71 214.72L253.08 217.09L253.97 259.42Q254.86 268.59 256.63 275.70L256.63 275.70Q257.22 277.77 257.22 278.07L257.22 278.07Q256.63 281.62 253.97 282.51L253.97 282.51Q247.75 284.87 228.22 271.85L228.22 271.85L224.37 269.19Q200.39 252.31 184.11 223.31L184.11 223.31Q182.04 219.46 179.97 215.31ZM129.06 180.68L129.06 180.68L103.01 188.08Q97.09 203.77 95.90 209.39L95.90 209.39Q98.57 211.47 110.11 216.79L110.11 216.79Q112.78 217.68 114.55 218.87L114.55 218.87Q124.02 203.18 129.06 180.68Z" stroke="#000" fill="black" /></svg>